<svg xmlns="http://www.w3.org/2000/svg" xmlns:xlink="http://www.w3.org/1999/xlink" viewBox="0 0 2253.33 1327.12"><defs><style>.cls-1,.cls-4,.cls-8{fill:#192e24;}.cls-1{opacity:0.3;}.cls-2{fill:#ff5622;}.cls-3{fill:#efc5b4;}.cls-5{fill:#fff;}.cls-6{fill:url(#linear-gradient);}.cls-7,.cls-8{opacity:0.5;}.cls-9{fill:#1e3f2f;}</style><linearGradient id="linear-gradient" x1="682.94" y1="794.01" x2="681.75" y2="847.93" gradientUnits="userSpaceOnUse"><stop offset="0" stop-color="#ff277a"/><stop offset="1" stop-color="#890000"/></linearGradient></defs><title>Asset 4</title><g id="Layer_2" data-name="Layer 2"><g id="Layer_14" data-name="Layer 14"><path class="cls-1" d="M1534.86,1209.17c-211.57,0-401.79,7.51-533.27,19.46A821.85,821.85,0,0,1,830,1226.15c-88.05-10.5-208.93-17-342.32-17-269.32,0-487.65,26.41-487.65,59s218.33,59,487.65,59c133.39,0,254.28-6.48,342.32-17a820.49,820.49,0,0,1,171.62-2.48c131.48,11.94,321.7,19.45,533.27,19.45,396.8,0,718.47-26.4,718.47-59S1931.66,1209.17,1534.86,1209.17Z"/><path class="cls-2" d="M1051.8,192.28c-218,108.45-232.24,172.14-172.69,157.63,0,0-55.86,73.66,37.85,39.79,8.37,48.81,67.72,80,67.72,80-3.35,36.39,15.06,49.56,31.19,18.09,12.57,23.64,36.1,26.64,35.89-10.86,38.91-4.61,69.26-28.13,69.26-28.13l5.5,16.7c-34.08,67.26,2.57,71.73,16.1,60.46v23.76c-61.73,23-12.5,55.72-12.5,55.72l-19.64,49S968.3,769,1068.59,744.2c-16.15,39.2,15,45.86,15,45.86-8.1-3.56-15.71,15.25-15.71,15.25l-23.22,190.8s-69.91,125.63-3.08,91.57l-.24,132.16s-7,56.56,93.61,56.56,91.9-70.82,91.9-70.82l-2.2-234.94s65,61.08,157.5,94.7c-2.63,156.28-19,208.06,100.75,211.06s117.62-62.27,115.56-161.8c0,0-8.42-22.17,15.84-27.88s56-12.23,56-12.23l16.44,45s-26.46,48,23.65,46.17c17.59,87.11,42.25,104.62,94.36,98.53s55.35-54.66,47.58-109.18S1825.5,988.6,1825.5,988.6l36.43-27.13,49.57,120s1.08,58.08,28.24,56.47c70.27,116.36,38.85,129.79,137.55,126.76,62.27,0,42.83-122.37,42.83-122.37l-7.23-54s61.05-17-10.81-60.47c0,0-34.23-148.45-49.93-169.3,53.63-18.17-27.26-59.4-27.26-59.4s-43.91-93.54-88.18-123c53.51-66.84,31.28-153.94,31.28-153.94s-68.53-96.9-110.26,7.1c-16,43.56,14.27,27.56,17.83,102.23-48.89-33.78-83.79-37.53-83.79-37.53s18.44-60-74.22-5.49c-44.66,15.46-119-33.34-119-33.34s55.16-63.87-41.9-48.42c48.72-30.78,2.78-81.28-40-40-36.58-26.3-56.14-102.69-56.14-102.69s69.3-33.35-16.9-48.26c35.57-29.93,18.18-55.84-24.68-46.93l-12.71-56.13s23-54,36.89-97.57-72.52-30.07-120-74.17c-19-16.55-81,36.48-81,36.48l-37.58-12.09s-26.42-96.36-123.45-42c-20.6-16.73-51.57-.3-36,17.6s34.64,33.27,34.64,33.27L1062.09,90s-83.4-23.36-31.41,28.37c0,0-68.15,28.09,13.25,41.68Z"/><path class="cls-3" d="M815.11,557.32c1.19-138.66-39.7-161.77-132.37-59.85-31.62-16-127.54-16.59-127.54-16.59C496.45,355.8,445.33,383.1,422.52,515.46c-105.81,23-223.85,235-223.85,235C28,586.51-42.67,709.17,160,931.84c0,0-21.63,120.3,3.85,223.41,72.3,241.18,131,56.89,176-61,5.85,8.25,14.79,16.07,25.4,23.32C338,1305.45,435,1332.51,482.83,1168l11.53,33.18c52.58,96,98.53,98.67,157.2-31.11,15.87-4.69,53.55-12.25,97.43-33.45l-2.44,4C728.42,1410.85,941,1257.05,945.81,865.91,969.87,686.81,815.11,557.32,815.11,557.32Z"/><path class="cls-4" d="M404.94,1284a33.73,33.73,0,0,1-7.36-.8c-18-4-31.89-22.27-39-51.51-7.38-30.38-7.44-71.63-.16-119.29a7.5,7.5,0,0,1,14.83,2.26c-14.34,93.88,3,148.48,27.56,153.9a19.33,19.33,0,0,0,4.05.43c20.37,0,49.83-31.08,70.77-103.11a7.5,7.5,0,1,1,14.4,4.19c-11,38-25.54,68.58-41.92,88.41C434.33,1275.17,419.26,1284,404.94,1284Z"/><path class="cls-4" d="M563.51,1277a58.58,58.58,0,0,1-21.4-3.71c-13-5-24.16-15.19-34.12-31.18-23.2-37.27-41.33-109.7-55.43-221.44a7.5,7.5,0,0,1,14.89-1.88c31.64,250.8,76.9,245.82,106.85,242.52,16.58-1.83,35-19,49.27-45.84,15.58-29.34,24.53-67.09,24.56-103.58a7.5,7.5,0,0,1,7.5-7.49h0a7.49,7.49,0,0,1,7.49,7.51c0,39.42-9.37,78.7-26.31,110.59-16.85,31.74-39,51.31-60.88,53.72A114.23,114.23,0,0,1,563.51,1277Z"/><path class="cls-4" d="M473.65,497.49c11.3-101.44,42-39.64,53.88-10.83,2.74,6.66-1.11,14-8.39,16.06l-28.34,8C481.71,513.29,472.67,506.3,473.65,497.49Z"/><path class="cls-4" d="M736.69,507c33.73-57.54,50.61-45.32,51.68,17.67.17,9.69-10.75,15.82-19.8,11.21a225.11,225.11,0,0,0-24.81-10.76C736.1,522.32,732.74,513.74,736.69,507Z"/><circle class="cls-4" cx="640.7" cy="738.84" r="6.34"/><circle class="cls-4" cx="612.2" cy="725.46" r="6.34"/><circle class="cls-4" cx="634.07" cy="711.3" r="6.34"/><circle class="cls-4" cx="725.08" cy="737.83" r="6.38"/><circle class="cls-4" cx="726.8" cy="710.82" r="6.38"/><circle class="cls-4" cx="750.4" cy="725.51" r="6.38"/><path class="cls-4" d="M593.37,745.64a5,5,0,0,1,8.69-3.64c22.1,25.51,69.59,18.21,71.72-5.54,2.49-27.89-52.65-42.91,9.9-42.52s.82,20.91,12.88,46.13c9.74,20.37,38.29,25,55.64,9.88a5,5,0,0,1,8.21,4.42c-10.33,64-56.47,76.8-85.36,75C646.51,827.51,598.62,805.59,593.37,745.64Z"/><path class="cls-5" d="M632.29,772.25A9.58,9.58,0,0,0,629.53,785l6.32,11a2.58,2.58,0,0,0,4.75-.73l.29-1.3a19.65,19.65,0,0,1,3.9-8,9.37,9.37,0,0,0-12.5-13.66Z"/><path class="cls-5" d="M729.36,772.53a9.58,9.58,0,0,1,2.13,12.86L724.65,796a2.58,2.58,0,0,1-4.71-1l-.22-1.32a19.62,19.62,0,0,0-3.51-8.19,9.37,9.37,0,0,1,13.15-13Z"/><path class="cls-4" d="M620.49,664c1.3-20.28-11.25-34.39-31.53-35.68s-32.36,11.24-33.65,31.52,9.1,34.25,29.38,35.54S619.2,684.26,620.49,664Z"/><path class="cls-5" d="M578.76,662.63c-5.34-2.82-4-7.64-1.17-13s6-9.17,11.37-6.35,3.83,7.55,1,12.89S584.09,665.45,578.76,662.63Z"/><circle class="cls-5" cx="578.69" cy="672.72" r="5.58"/><path class="cls-4" d="M800.74,663.34c1.3-20.28-11.25-34.39-31.53-35.68s-32.36,11.25-33.66,31.52,9.11,34.25,29.39,35.54S799.45,683.61,800.74,663.34Z"/><path class="cls-5" d="M760.29,662.08c-5.4-2.69-4.17-7.54-1.49-12.94s5.8-9.32,11.21-6.63,4,7.45,1.33,12.86S765.69,664.76,760.29,662.08Z"/><circle class="cls-5" cx="758.86" cy="673.29" r="5.58"/><path class="cls-4" d="M542.9,606.7c-.88-17.14,14.33-31.86,34-32.87s36.26,12.08,37.14,29.22-16-1.87-35.68-.86S543.78,623.85,542.9,606.7Z"/><path class="cls-4" d="M723.78,614.19c-.88-17.15,14.32-31.86,34-32.87s36.27,12.07,37.15,29.22-16.06-1.87-35.69-.86S724.66,631.34,723.78,614.19Z"/><path class="cls-4" d="M717.28,855.28c.17-12.26-17.85-.26-39.87-.58s-39.69-12.84-39.87-.58,17.52,22.46,39.54,22.78S717.1,867.54,717.28,855.28Z"/><path class="cls-4" d="M234.94,1277.12c-1.44,0-2.89-.06-4.37-.18-14.22-1.15-27.21-10.18-38.61-26.84-24.05-35.14-39.8-102.38-43.19-184.49C145.13,977.7,156.2,885.34,180,805.55c26.45-88.85,81.69-208.67,194.62-274.9a338.25,338.25,0,0,1,45.15-22.15,7.5,7.5,0,1,1,5.58,13.92,323.92,323.92,0,0,0-43.14,21.17C273.46,607.35,220,723.56,194.33,809.83c-49.53,166.4-35.57,365.21,10,431.79,8.72,12.75,18,19.6,27.45,20.37,1,.08,1.92.12,2.86.12,39.51,0,60.82-67.93,85.41-146.31,6.86-21.85,13.95-44.45,21.83-66.8a7.5,7.5,0,1,1,14.14,5c-7.79,22.1-14.84,44.57-21.65,66.3C308,1204.27,285.17,1277.11,234.94,1277.12Z"/><path class="cls-4" d="M486.86,1176.31a7.48,7.48,0,0,1-1.47-.15c-69.18-13.77-96.77-35.27-146.86-74.29l-7.43-5.78a7.5,7.5,0,0,1,9.21-11.85l7.44,5.8c49.85,38.84,74.88,58.33,140.57,71.41a7.5,7.5,0,0,1-1.46,14.86Z"/><path class="cls-4" d="M648.65,1181.39a7.5,7.5,0,0,1-1.48-14.85,380.44,380.44,0,0,0,106-38.45c104.16-56.47,174.32-158.89,183.12-267.3.8-9.9,1.16-19.9,1.06-29.74-.08-10.07-.63-20.24-1.62-30.25a346.12,346.12,0,0,0-70.07-176.73,338.48,338.48,0,0,0-57.51-58.79,7.5,7.5,0,0,1-2.82-6c.34-26,1.37-105.16-26.34-115.88-12.34-4.78-37.72,1.53-88.45,58.72a7.5,7.5,0,0,1-8.11,2.09c-25.14-8.89-37.5-9.81-62.12-11.64-4.08-.31-8.47-.63-13.28-1-14.52-1.18-31.7-2.26-49-1.41a7.51,7.51,0,0,1-7.25-4.49c-21.86-50.26-48.15-79.75-68.57-77-13.21,1.79-23.21,16.83-29.29,29.14-10.55,21.41-18.89,53.25-24.77,94.64a7.5,7.5,0,1,1-14.85-2.11c12.25-86.25,34.76-132.19,66.9-136.54,15-2,30.39,5.38,45.7,22C538.52,429.64,551.11,450,562.38,475a419.51,419.51,0,0,1,45.83,1.63c4.78.39,9.13.72,13.19,1,23.61,1.76,37.25,2.78,61.23,10.82,44.29-49.06,77.6-68.37,101.75-59,32.28,12.5,36.49,70.38,36,126.42A353.32,353.32,0,0,1,877.54,615a361.14,361.14,0,0,1,73.09,184.37c1,10.45,1.61,21.09,1.69,31.6.1,10.27-.27,20.74-1.11,31.08-4.56,56.2-24.77,111.82-58.45,160.84-33.4,48.6-79.21,89.56-132.47,118.44a395.74,395.74,0,0,1-110.14,40A7.78,7.78,0,0,1,648.65,1181.39Z"/><path class="cls-4" d="M160.78,940.5a7.47,7.47,0,0,1-5.51-2.4c-52.78-57-91.63-112.53-112.35-160.48-19.61-45.36-21-80-3.83-97.4,9.4-9.56,28.39-17.89,65.49-3.23,30,11.87,65.63,36.09,105.86,72a7.5,7.5,0,0,1-10,11.19C162.09,725.94,127,702,99.07,690.94c-23-9.08-40.49-9.15-49.28-.2-12.21,12.43-9.64,42.69,6.89,80.93C70.67,804,101,857.4,166.28,927.91a7.49,7.49,0,0,1-5.5,12.59Z"/><path class="cls-6" d="M656.86,804.78c-.61-7.69,11.1-14.62,25.35-8.7,12.52,5.2,25.8-3.14,26.42,4.54s-10.47,14.84-24.77,16S657.48,812.46,656.86,804.78Z"/><path class="cls-4" d="M1005.33,277.91c0-23.07-23-35.11-48.29-37.33-23-2-58.37,3.29-58.37,26.37s25.52,64.29,48.59,64.29S1005.33,301,1005.33,277.91Z"/><path class="cls-4" d="M1180.15,187.69c0-15.22-12.34-24-27.56-24s-27.55,8.78-27.55,24,12.33,24.89,27.55,24.89S1180.15,202.91,1180.15,187.69Z"/><path class="cls-5" d="M1164.15,183.89c0-5.12-5.18-8.08-11.56-8.08s-11.55,3-11.55,8.08,5.17,8.39,11.55,8.39S1164.15,189,1164.15,183.89Z"/><path class="cls-4" d="M1056.15,180.2c0-12.79-9.42-20.18-21-20.18s-21,7.39-21,20.18,9.42,20.93,21,20.93S1056.15,193,1056.15,180.2Z"/><path class="cls-5" d="M1043.93,177.34c0-3.91-4-6.17-8.82-6.17s-8.82,2.26-8.82,6.17,4,6.4,8.82,6.4S1043.93,181.26,1043.93,177.34Z"/><path class="cls-4" d="M1037.13,436.5c-16.3,0-43.71-11.12-87.34-57.15-25.32,17.31-47.92,26.42-64.9,26.43a34.65,34.65,0,0,1-14.93-3A21.74,21.74,0,0,1,857.18,384c-.47-7.71,2.5-15.9,8.34-23.8-8.94-.38-16.67-3.49-20.8-10.14-7.34-11.82-3.83-35,54.52-78.18a7.5,7.5,0,0,1,8.93,12.06c-48.81,36.13-53.16,54.27-50.71,58.21,2.57,4.14,16.83,4.93,31.27-2.47a7.5,7.5,0,0,1,7.43,13c-17.2,10.89-24.45,23.12-24,30.4a6.74,6.74,0,0,0,4.25,6.1c9.48,4.5,33.51.44,70-25.82a7.49,7.49,0,0,1,9.88,1c52.94,57.3,80.86,61,88.23,55s5.06-26.45-10-47.29a7.5,7.5,0,0,1,10.85-10.18c32.69,27,46,26.34,47.52,24.72,1.35-1.43,1.76-7.83-2.94-18.87-5.38-12.66-15.72-27.61-29.09-42.1a7.5,7.5,0,0,1,11-10.17c31.69,34.33,44.81,67.83,31.9,81.46-6.11,6.44-18.3,9.54-42.64-5.12,4.84,16.55,2.65,31.18-7.09,39.15C1050.85,433.61,1045.43,436.5,1037.13,436.5Z"/><path class="cls-4" d="M937.05,259.64l-.52,0a7.5,7.5,0,0,1-1.71-14.7c6.66-2.82,68.72-35.51,109.48-57.15V168.29c-22.31-3.87-48-11-46.72-27.5.75-9.88,11.62-16.68,23.27-20.39-12.15-9.56-18.38-19.08-18.19-28,.14-6.65,3.92-12.4,10.38-15.78,14.18-7.42,38.73-2.89,59.7,11a7.5,7.5,0,0,1-8.29,12.5c-20.56-13.64-38.18-13.51-44.45-10.23-2.31,1.21-2.33,2.32-2.34,2.8-.08,3.65,5.45,13.09,26.68,25.35a7.5,7.5,0,0,1-3.75,14c-12.82,0-26,6.28-27.93,9.68,1,1.39,7.45,7.69,40.28,12.74a7.5,7.5,0,0,1,6.36,7.41v30.37a7.5,7.5,0,0,1-4,6.62c-.29.15-28.55,15.17-56.71,30C943.56,257.84,939.65,259.64,937.05,259.64Z"/><path class="cls-4" d="M1138.51,173.85c-24.28,0-42.4-6.81-49.56-19-3.81-6.5-3.75-13.86.18-19.68,2.81-4.17,7.28-7.13,12.89-8.74-5-8.22-5-16.78-1.37-22.71,5.48-9,20.35-14.38,44.21-.24a7.5,7.5,0,1,1-7.65,12.9c-14.67-8.69-22.46-6.95-23.76-4.83s.21,9.08,9.81,15.15a7.5,7.5,0,0,1-5.1,13.76c-10.41-1.54-15.33,1.22-16.59,3.09-.25.37-1,1.47.32,3.71,3.14,5.35,16.66,13.71,47.41,11.12,33.46-2.83,50.42-9.39,58.77-14.39,6-3.58,8-6.7,8-6.73a7.5,7.5,0,1,1,14.46,4c-1.2,4.33-10.68,26.22-79.93,32.07Q1144.32,173.86,1138.51,173.85Z"/><path class="cls-4" d="M1062.09,97.47a7.5,7.5,0,0,1-5.22-12.89c28.28-27.41,70-38.48,120.55-32a271,271,0,0,1,67.66,17.88,7.5,7.5,0,0,1-6,13.74,260.6,260.6,0,0,0-63.91-16.79c-46.37-5.85-82.66,3.55-107.84,27.95A7.45,7.45,0,0,1,1062.09,97.47Z"/><path class="cls-4" d="M1079.7,81.61a7.48,7.48,0,0,1-4.42-1.44c-30-21.92-43.54-39.52-41.37-53.79,1.11-7.29,6.18-12.83,14.28-15.59,10.61-3.63,24.59-1.87,33.75,3.77,34.92-15.76,62.82-18.69,85.19-9,20.39,8.84,34.94,27.61,44.5,57.36a7.5,7.5,0,0,1-14.28,4.59c-8.16-25.4-20-41.16-36.19-48.19-18.78-8.15-44.67-4.56-76.92,10.68a7.49,7.49,0,0,1-8.38-1.35c-4.47-4.27-15.78-6.09-22.83-3.69-2.61.89-4.06,2.12-4.29,3.66-.19,1.25-.81,13,35.39,39.42a7.5,7.5,0,0,1-4.43,13.55Z"/><path class="cls-4" d="M1914.07,1094.22a7.5,7.5,0,0,1-6.75-4.22c-46.07-94.64-52.5-125.81-52.75-127.09a7.5,7.5,0,0,1,14.72-2.89c0,.28,6.68,31.31,51.52,123.42a7.5,7.5,0,0,1-3.46,10A7.42,7.42,0,0,1,1914.07,1094.22Z"/><path class="cls-4" d="M2061.82,1273.48a181.26,181.26,0,0,1-29.24-2.38,67.73,67.73,0,0,1-48.53-34.45c-18.67-33.84-35.82-65.91-51-95.32a7.5,7.5,0,1,1,13.34-6.87c15.09,29.28,32.17,61.23,50.77,95A52.82,52.82,0,0,0,2035,1256.3a168.13,168.13,0,0,0,31.13,2.12,53.47,53.47,0,0,0,52-57.44c-2.9-38.28-7.16-75.84-12.68-111.61a7.5,7.5,0,0,1,14.83-2.28c5.57,36.15,9.88,74.09,12.8,112.76a68.48,68.48,0,0,1-66.56,73.57C2065,1273.46,2063.39,1273.48,2061.82,1273.48Z"/><path class="cls-4" d="M1690.1,595.87a150.64,150.64,0,0,1-97-35.62,7.5,7.5,0,0,1,9.71-11.43,135.32,135.32,0,0,0,98.19,31.6c6.44-.53,10.8-.87,17.09-1h.19a7.5,7.5,0,0,1,.18,15c-5.88.15-10.05.47-16.22,1Q1696.15,595.88,1690.1,595.87Z"/><path class="cls-4" d="M1516.59,474.09a7.48,7.48,0,0,1-6-3.06,633.35,633.35,0,0,1-61.37-103.93,7.5,7.5,0,0,1,13.56-6.4,618.32,618.32,0,0,0,59.9,101.46,7.49,7.49,0,0,1-6,11.93Z"/><path class="cls-4" d="M1418.86,276.21a7.51,7.51,0,0,1-7.17-5.29c-10.08-32.62-13.88-53.33-14-54.19a7.51,7.51,0,0,1,.4-4.09c.26-.65,25.57-64.83,34.35-87.65,3.83-10,4.62-17.08,2.4-21.74-3.57-7.52-16.74-11.83-33.41-17.28-18.58-6.08-41.71-13.65-65.79-29.67-27.94-18.59-58.48-3.47-77.75,16.87-21.11,22.29-34.09,57.21-19.26,77.07,15,20.12,28.63,33.85,46.19,35.46,22.42,2.05,52.22-14.93,93.82-53.44a7.5,7.5,0,0,1,10.19,11c-45.56,42.17-78.08,59.87-105.37,57.36-23.09-2.11-39.43-18.08-56.85-41.42-9.33-12.5-11.79-29.75-6.93-48.58,4.33-16.79,14-33.75,27.32-47.77s28.72-23.66,44.57-27.79a63.35,63.35,0,0,1,52.38,8.74c22.38,14.89,44.43,22.11,62.15,27.9,20.08,6.57,36,11.76,42.29,25.1,4.13,8.7,3.51,19.36-1.95,33.57-7.91,20.56-29.19,74.55-33.59,85.73,1.2,5.94,5.18,24.44,13.2,50.38a7.49,7.49,0,0,1-5,9.38A7.37,7.37,0,0,1,1418.86,276.21Z"/><path class="cls-4" d="M1051.75,484.4a7.5,7.5,0,0,1-1.4-14.87c63.55-12.18,136.44-73,177.26-124.29a7.5,7.5,0,1,1,11.74,9.34c-21.08,26.5-49.92,54.43-79.12,76.64-37.41,28.45-74.43,46.79-107.06,53A7.59,7.59,0,0,1,1051.75,484.4Z"/><path class="cls-4" d="M987.48,478.49a7.45,7.45,0,0,1-3.07-.66c-30.47-13.69-54.44-42.95-71.24-87a7.5,7.5,0,1,1,14-5.35c15.33,40.19,36.65,66.65,63.36,78.65a7.5,7.5,0,0,1-3.07,14.34Z"/><path class="cls-4" d="M1261.67,364.57c-13.38,0-29.29-8.07-42.43-21.95a7.5,7.5,0,0,1,10.89-10.31c13.47,14.22,27.61,18.71,35,16.87,2-.51,3.23-1.38,3.57-2.61.76-2.75-1.25-8.87-9.44-17.05a7.5,7.5,0,0,1,6-12.77c15.51,1.54,22.05-1.48,23.47-3.5.19-.27.76-1.08-.24-3.19-2.41-5.06-10.52-10.57-21.38-11.34a7.5,7.5,0,1,1,1-15c15.12,1.07,28.73,9,33.87,19.86,3,6.36,2.65,13-1,18.26-3,4.2-9,8.74-21.13,10,4.71,8.56,4.27,15,3.24,18.73-1.82,6.54-7.06,11.33-14.4,13.16A29.52,29.52,0,0,1,1261.67,364.57Z"/><path class="cls-4" d="M1039.71,513.44a19.07,19.07,0,0,1-6.93-1.34c-5.09-2-10.51-6.49-14.41-14-5.23,7.43-11.63,12.21-18.53,13.53a17.32,17.32,0,0,1-17.4-6.44c-7.9-10-6.85-28.07,2.88-49.54A7.5,7.5,0,0,1,999,461.89c-9.11,20.11-7.28,30.87-4.76,34.07a2.52,2.52,0,0,0,2.8,1c4.81-.92,11.94-8.5,16.24-22.95a7.49,7.49,0,0,1,14.67,1.74c.68,12.89,5.8,20.64,10.28,22.38,1.76.68,2.64.14,3.27-.48,2.76-2.72,5.42-12.75-2.14-33.12a7.5,7.5,0,0,1,14.06-5.22c8.23,22.18,7.72,40.05-1.39,49A17.38,17.38,0,0,1,1039.71,513.44Z"/><path class="cls-4" d="M1126.52,473a7.5,7.5,0,0,1-7.12-5.16l-5.5-16.69a7.5,7.5,0,1,1,14.24-4.69l5.5,16.69a7.5,7.5,0,0,1-4.77,9.47A7.7,7.7,0,0,1,1126.52,473Z"/><path class="cls-4" d="M1158.76,567.33a19.07,19.07,0,0,1-16.94-9.62c-3.39-5.79-4.23-13.21-2.63-21.63-11.52,4.6-20.82,2.23-26.47-2.81-13.11-11.68-12.48-42,19.88-80.94a7.5,7.5,0,0,1,11.54,9.58c-25.82,31.07-28.06,54.27-21.44,60.17,4.29,3.82,15.29.72,28-12.61a7.5,7.5,0,0,1,11.81,9.12c-9.3,15.06-10.6,26.7-7.76,31.55a4.25,4.25,0,0,0,4.31,2.18c5.77-.24,18.84-7.49,31.2-33.21a7.5,7.5,0,1,1,13.52,6.49c-12.25,25.49-28.74,41.08-44.11,41.71Z"/><path class="cls-4" d="M1303.24,522.71a19.82,19.82,0,0,1-7-1.29c-10.75-4-18.52-16.67-21.32-34.65a7.5,7.5,0,1,1,14.82-2.31c2.26,14.5,7.76,21.41,11.78,22.92a4.44,4.44,0,0,0,4.79-1c4.43-3.71,8.34-14.85,4.79-34.06a7.5,7.5,0,0,1,13.35-5.9c15.07,19.85,26.65,25.28,29,24.2.08,0,7.86-6-3.11-52.5a7.5,7.5,0,0,1,14.6-3.45c9.73,41.2,8.11,63.29-5.1,69.51-10.42,4.92-22.66-2.79-32.54-12.08-1,11.37-4.8,20.33-11.31,25.78A19.74,19.74,0,0,1,1303.24,522.71Z"/><path class="cls-4" d="M1600.29,1097a7.5,7.5,0,0,1-1.33-14.88c136.69-24.81,239-101.19,289.09-164.4A7.5,7.5,0,0,1,1899.8,927c-51.83,65.35-157.37,144.28-298.16,169.84A7.87,7.87,0,0,1,1600.29,1097Z"/><path class="cls-4" d="M1382.18,1072.84a7.33,7.33,0,0,1-2.69-.51c-64.62-24.89-128.17-65.76-188.87-121.46a7.5,7.5,0,1,1,10.14-11c59.31,54.43,121.26,94.3,184.12,118.52a7.5,7.5,0,0,1-2.7,14.5Z"/><path class="cls-4" d="M1797,1272.15c-1.2,0-2.41,0-3.62-.1-6.47-.34-13.26-1-20.18-2a68.2,68.2,0,0,1-54.33-44.06l-22.3-60.54a7.5,7.5,0,1,1,14.07-5.19l22.31,60.54a53.2,53.2,0,0,0,42.38,34.4c6.48.93,12.82,1.56,18.85,1.88a53.37,53.37,0,0,0,55.75-59c-4.12-39-13-106.76-31.8-208.14a7.5,7.5,0,0,1,14.74-2.74c18.91,101.86,27.83,170,32,209.31a68.38,68.38,0,0,1-67.84,75.61Z"/><path class="cls-4" d="M1590.12,909.57a7.51,7.51,0,0,1-7.48-7c-5.78-83.07-12.55-147.7-12.62-148.34a7.5,7.5,0,0,1,14.92-1.57c.07.65,6.86,65.52,12.67,148.87a7.51,7.51,0,0,1-7,8Z"/><path class="cls-4" d="M1481.47,1283.89a214.52,214.52,0,0,1-53.1-6.6,68.22,68.22,0,0,1-51-60.53c-5.12-61.45-9.51-188,18.56-345.5a7.5,7.5,0,1,1,14.76,2.63c-27.76,155.78-23.43,280.91-18.37,341.63a53.24,53.24,0,0,0,39.79,47.24c47.66,12.12,90.31,4,117.7-4.91a53.61,53.61,0,0,0,36.67-44.86c5.83-52.21,6.12-130.9.86-233.87a7.5,7.5,0,1,1,15-.77c5.3,103.78,5,183.29-.93,236.3a68.65,68.65,0,0,1-46.93,57.46A236.92,236.92,0,0,1,1481.47,1283.89Z"/><path class="cls-4" d="M1127.67,1284.08a174.94,174.94,0,0,1-39.55-4.54,68.43,68.43,0,0,1-52.95-64.88c-1.23-46.23-1.58-87.8-1.05-127.08a7.49,7.49,0,0,1,7.49-7.4h.11a7.49,7.49,0,0,1,7.39,7.6c-.51,39.08-.17,80.45,1.06,126.48a53.43,53.43,0,0,0,41.33,50.67c30.21,7,61.13,5.13,91.92-5.5a52.94,52.94,0,0,0,35.59-47.14c5.53-93.55-1.74-239.8-1.81-241.27a7.5,7.5,0,0,1,15-.76c.07,1.48,7.38,148.55,1.8,242.92a67.89,67.89,0,0,1-45.66,60.43A185,185,0,0,1,1127.67,1284.08Z"/><path class="cls-4" d="M1044.71,1003.61h-.43a7.5,7.5,0,0,1-7.07-7.91c4.48-79.45,13.68-149.57,28.12-214.37a7.5,7.5,0,1,1,14.64,3.26c-14.26,64-23.35,133.33-27.78,212A7.5,7.5,0,0,1,1044.71,1003.61Z"/><path class="cls-4" d="M1141.47,612.89c-16.34,0-27.43-7.82-31.74-17.63-6.74-15.36.89-38.07,33.15-54.19a7.5,7.5,0,0,1,6.7,13.42c-23.31,11.65-29.88,26.17-26.11,34.73,3.51,8,17.24,12.21,36.67,4.79a7.5,7.5,0,0,1,5.35,14A67.68,67.68,0,0,1,1141.47,612.89Z"/><path class="cls-4" d="M1087.94,797.54a27.48,27.48,0,0,1-13.89-3.59c-9.82-5.73-16.54-18.83-13.34-36.65-7.2,2.05-14.62,2.11-21-.15-8.4-3-13.79-9.62-14.8-18.18-1.87-16,10.46-44.4,79.38-89.54,5.83-15.67,11.87-30.68,18.93-47a7.5,7.5,0,0,1,13.77,6c-7.3,16.88-13.49,32.32-19.49,48.58a7.47,7.47,0,0,1-3,3.69c-74,48.06-75.24,72.21-74.73,76.57.21,1.81,1,4.38,4.93,5.8,6,2.11,16.52.25,24.39-7.38a7.5,7.5,0,0,1,11.88,8.84c-9.47,18.23-6.88,32.16.58,36.51,9.27,5.4,28-2.19,47.09-31.61a7.5,7.5,0,0,1,12.58,8.17C1122,787.26,1102.62,797.54,1087.94,797.54Z"/><path class="cls-4" d="M1067,1122.11a17.78,17.78,0,0,1-4.85-.66c-4.52-1.26-16.49-7-15.81-32.26-16.9,15.32-27.41,12.6-32.75,8.71-18.89-13.75-3-65.69,37.77-123.49a7.5,7.5,0,1,1,12.26,8.65c-45.71,64.79-45.4,99.65-41.2,102.71.87.64,10.86-.69,29.08-24.94a7.5,7.5,0,0,1,13.27,6.31c-6.83,27.62-1.89,38.94,1.41,39.86,4.07,1.12,17.33-7.28,25.93-34.88a7.5,7.5,0,1,1,14.32,4.46C1097.86,1104.07,1081.89,1122.11,1067,1122.11Z"/><path class="cls-4" d="M1183.36,957.11a15.41,15.41,0,0,1-3.66-.45c-10-2.45-15.82-13.92-17-32.41-12.39,12.71-28.23,22.42-41,17.33-17.1-6.84-19.82-34.73-8.33-85.26a7.5,7.5,0,1,1,14.62,3.33c-11.23,49.41-5.74,66-.72,68,6.86,2.74,25.67-10.75,37-29.82a7.5,7.5,0,0,1,13.91,4.59c-2.87,28.25,3.07,39.11,5,39.66h.11c1.83,0,10.48-5.43,21.35-32.61a7.5,7.5,0,1,1,13.93,5.57C1205.17,948.81,1192.52,957.1,1183.36,957.11Z"/><path class="cls-4" d="M1441.19,899.58a15,15,0,0,1-5-.86c-8.86-3.1-13.45-13.28-13.73-30.35-11,10.49-22.28,14.53-31.56,10.72-17.68-7.25-20.76-37.74-9.16-90.64a7.5,7.5,0,1,1,14.65,3.22c-11.69,53.31-5,71.42.2,73.54,4.3,1.77,16.42-4.78,28.8-24.41a7.5,7.5,0,0,1,13.77,5.07c-4.19,29,.52,37.92,2,38.7,1.23.17,9-3.19,20.53-22.75a7.5,7.5,0,0,1,12.94,7.59C1460.61,893.28,1449.26,899.58,1441.19,899.58Z"/><path class="cls-4" d="M1552.88,791.66c-11.34,0-28.16-8-50.71-39.22a7.5,7.5,0,1,1,12.15-8.8c20.21,27.94,35.89,36.15,42.45,31.9,7.53-4.88,8.69-25.59-.73-41.9a7.5,7.5,0,0,1,11.77-9.09c17.12,16.94,24.73,17.34,25.69,16.53,4.13-3.47,2.06-28.72-16.59-55.59a7.5,7.5,0,0,1,12.33-8.55c18.48,26.63,28.49,63.37,13.91,75.62-6.47,5.43-15.07,5.06-25.68-1.1,1.83,15.66-2.5,30.16-12.54,36.67A21.88,21.88,0,0,1,1552.88,791.66Z"/><path class="cls-4" d="M1287.8,756.18a27.37,27.37,0,0,1-17.32-6c-7.18-5.75-18.22-20.84-11.48-57.31a7.5,7.5,0,0,1,14.75,2.73c-5.52,29.86,2.43,39.92,6.11,42.86,5.43,4.35,12,2.54,15.41,1.08,8.38-3.58,18.72-14,20.3-31.75a7.5,7.5,0,0,1,14-3c14.8,26.26,26,30.14,29.87,28.52,5.64-2.35,10.31-17.93,4-40a7.5,7.5,0,1,1,14.42-4.12c7.91,27.69,2.71,51.51-12.65,57.92-7.46,3.12-21.59,3.82-39.18-20.05-5.07,12-13.92,21.57-24.89,26.26A34.08,34.08,0,0,1,1287.8,756.18Z"/><path class="cls-4" d="M1451.05,370.07a105.65,105.65,0,0,1-20.2-2.09,7.5,7.5,0,0,1,2.9-14.72c24.61,4.83,40.86-.86,46-8.64a8.61,8.61,0,0,0,.06-10.18c-5.3-7.92-23.35-14.81-56.75-8.15a7.5,7.5,0,0,1-3.45-14.59c25.32-6.93,38.36-22.45,37-28.6-1-4.69-13.87-9.85-45.11-4.81a7.5,7.5,0,0,1-2.39-14.81c49.26-8,60.09,6.89,62.16,16.44s-3.57,20.21-14.13,29.19c16.33,1.58,28.67,7.38,35.1,17a23.49,23.49,0,0,1,0,26.83C1486.26,362,1472.65,370.07,1451.05,370.07Z"/><path class="cls-4" d="M1581,567.33a7.5,7.5,0,0,1-3-14.36c24-10.69,33.53-24.52,30.29-32.1-3.71-8.67-25.68-14-62.91,1.27a7.5,7.5,0,0,1-6.18-13.65c22.33-11.08,30.08-25.5,29.94-34.48a12.12,12.12,0,0,0-7.33-11.39c-9.5-4.34-28.72-1.35-54.16,20a7.5,7.5,0,1,1-9.65-11.48c37.69-31.67,61.54-26.07,70-22.19a27.1,27.1,0,0,1,16.1,24.79c.13,8.34-2.82,16.66-8.42,24.38,25.4-3.27,41.16,4.66,46.36,16.83,6.23,14.55-3.11,36.17-38,51.71A7.51,7.51,0,0,1,1581,567.33Z"/><path class="cls-4" d="M1766.82,630.3A7.5,7.5,0,0,1,1762,617c22.79-18.87,28-34.07,24.46-38.83-4.34-5.81-30.84-7.12-81.26,26.83a7.5,7.5,0,0,1-8.38-12.44c23.83-16.05,45.86-26.69,63.71-30.77,24.08-5.52,34.11,2.27,38,7.4,10.56,14.12.25,36.87-26.91,59.37A7.53,7.53,0,0,1,1766.82,630.3Z"/><path class="cls-4" d="M1764.37,787c-14.27,0-31.14-5-46.1-14.77a7.5,7.5,0,1,1,8.2-12.56c23.61,15.43,48.76,14.9,54.2,7,3.71-5.39-2.69-18.2-25.37-34.66a7.5,7.5,0,0,1,6.27-13.34c10.87,2.79,19.89-.13,23.67-4,2.74-2.83,2-5.25,1.81-6-1.72-5.9-12.13-14.27-36.21-20.06a7.5,7.5,0,0,1,3.51-14.59c34,8.18,44.38,21.08,47.1,30.47,2.14,7.35.16,14.89-5.44,20.66a32.13,32.13,0,0,1-15.53,8.48c21.8,21.59,16.49,35.88,12.54,41.62C1787.56,783.06,1777,787,1764.37,787Z"/><path class="cls-4" d="M1919.17,939.3c-13.38,0-32.19-11.09-57.91-33.95a7.5,7.5,0,1,1,10-11.21c39.89,35.45,50,29.85,50.4,29.59,2.89-1.8,5.68-12.4-2.17-40.75a7.5,7.5,0,0,1,14.46-4c8.7,31.44,7.28,50.25-4.36,57.49A19.14,19.14,0,0,1,1919.17,939.3Z"/><path class="cls-4" d="M2015.83,900.88c-8.14,0-19.28-3.22-33.87-13.84a7.5,7.5,0,0,1,8.82-12.13c16,11.67,27.42,12.87,31.23,9.05s2.84-14.3-6.13-26.5a7.5,7.5,0,0,1,9.5-11.1c14,7.29,24.17,6.33,29,3,3.06-2.13,4.42-5.37,3.92-9.39-1-8.38-10.41-20.48-33.66-29.28a7.54,7.54,0,0,1-4-3.61c-57.7-113.52-137.4-184.72-230.47-205.9a7.5,7.5,0,1,1,3.33-14.62C1843,597.84,1889,622.34,1930,659.35c39,35.24,73.57,81.79,102.65,138.38,23.81,9.66,38.52,24.28,40.51,40.41a24.45,24.45,0,0,1-10.25,23.54c-6.89,4.79-15.81,6.3-25.72,4.58,3.51,11.28,2.09,21.62-4.54,28.28C2030.51,896.67,2025.13,900.88,2015.83,900.88Z"/><path class="cls-4" d="M2112.69,1095.77a45.12,45.12,0,0,1-21.47-5.94,7.5,7.5,0,1,1,7.19-13.17c9,4.9,17.63,5.42,23.71,1.41a14.85,14.85,0,0,0,6.42-14.13c-1.05-11.1-12-22-29.34-29.26a7.52,7.52,0,0,1-4.47-5.42c-12.53-61.28-29.19-117.8-49.53-168a7.5,7.5,0,1,1,13.9-5.63c20.26,50,36.92,106.08,49.54,166.8,20.7,9.58,33.32,24,34.83,40.08,1.08,11.46-3.81,22-13.1,28.07A31.71,31.71,0,0,1,2112.69,1095.77Z"/><path class="cls-4" d="M1978.67,1149.78c-6,0-15.22-2.55-22.45-15.88-8.72,9.06-20.06,12.9-30.15,9.33-8.81-3.11-15.16-11.41-17.89-23.38-2.81-12.32-2-28.4,2.53-47.78a7.5,7.5,0,1,1,14.61,3.39c-8.72,37.64-.49,51.42,5.75,53.63,5.58,2,14.67-2.78,20.2-14.16a7.5,7.5,0,0,1,14,1.19c3.39,11.72,8.41,18.66,13.48,18.66h.25c5.2-.24,12.39-7.69,14.37-18a7.5,7.5,0,0,1,14.73,2.83c-3.19,16.59-15.41,29.55-28.42,30.14C1979.32,1149.78,1979,1149.78,1978.67,1149.78Z"/><path class="cls-4" d="M1563,1019.58c-13.11,0-27.49-6.85-36.81-18.87a7.5,7.5,0,1,1,11.86-9.19c9.63,12.44,25.8,15.93,33.81,10.75,6.59-4.27,6.21-14.51-1-28.1A7.5,7.5,0,0,1,1581,964c13.12,6.92,24.81,7.67,29.1,1.88,5.7-7.7,1.49-31.95-33.48-67.2a7.5,7.5,0,0,1,10.65-10.56c41.83,42.16,45.45,72.43,34.89,86.69-6.6,8.91-18.05,11.89-31.62,8.78,4.42,19.52-6.36,28.59-10.48,31.26A31.1,31.1,0,0,1,1563,1019.58Z"/><path class="cls-4" d="M1732.72,1187.73a20.68,20.68,0,0,1-8.56-1.81c-7.75-3.49-11.81-11.07-13.91-17.42-15.75,6-24.81,1.24-29.1-2.56-5.69-5-13.36-17.73-2.39-46.64L1663.24,1075a7.5,7.5,0,0,1,14.16-5l16.44,47a7.56,7.56,0,0,1-.13,5.3c-7.65,18.87-6.19,29.27-2.61,32.44s11.41,1.69,20.81-3.52a7.51,7.51,0,0,1,11.11,5.89c.39,4,2.7,13.11,7.31,15.16,3.29,1.47,8.88-.5,15.73-5.55a7.5,7.5,0,0,1,8.9,12.08C1746.86,1184.74,1739.41,1187.73,1732.72,1187.73Z"/><path class="cls-4" d="M1936.7,683.51a7.49,7.49,0,0,1-6.51-11.19c58.32-103,33.87-148.87,20.65-163.83-14.78-16.72-38.14-22.39-58.14-14.11-18.42,7.62-28.2,24.78-26.84,47.07,0,.16,0,.33,0,.49-.06,16,3.89,25.92,8.06,36.43,5.15,13,10.48,26.37,7.89,49.71a7.5,7.5,0,0,1-14.91-1.66c2.18-19.62-2-30.23-6.92-42.51-4.29-10.79-9.15-23-9.12-41.79-1.65-28.54,11.83-51.56,36.1-61.6,25.91-10.73,56.09-3.48,75.11,18,10.27,11.61,22.08,32.93,20,68.49-1.89,32.56-15,70.46-38.86,112.66A7.49,7.49,0,0,1,1936.7,683.51Z"/><g class="cls-7"><path class="cls-4" d="M1136,934.21c-12.13,43.26,13,52,26.83,32-2.81,24.3,12,39.71,27.41,21.93,11.26,7.11,29.2,40.34,30.7,109.92l4.78-19-3.18-108.46-31.75-24.11-11.54.13-13.9-32Z"/><path class="cls-4" d="M1277.14,1000.87c56.36,34.08,94.43,40.29,105.38-37.73l7.17,18-7.5,84.24-99.52-55.87Z"/><path class="cls-4" d="M1879.78,595.11c5.55,22.66,56.86,90.63,81.58,5.09l-7.88,38.9-17.18,34.62-61.63-46.47V595.11Z"/><path class="cls-4" d="M1692.1,1112c-7.66-31.43,131.08-109.64,143.42-20.94l5.3-10.34L1825.5,988.6s-75.88,57.28-155.18,85.89L1684,1112Z"/></g><path class="cls-8" d="M396.06,1125.76c34.6,18.69,81.92,40.7,69.45-19.72l14.19,26.1,7.71,39.7-76.13-27.25Z"/><path class="cls-8" d="M662.64,1127.42c-2.84,25.2,20.6,31.11,39.61,23.6s-2.69,8.38-2.69,8.38L666.67,1167l-15.11,3.11v-35.55Z"/><path class="cls-4" d="M792.16,1284.1a37.91,37.91,0,0,1-20.24-5.8c-12.91-8-22.3-23.81-27.93-46.9-5.75-23.6-7.4-54.31-4.93-91.27a7.5,7.5,0,1,1,15,1c-6.3,93.89,16,118.29,25.81,124.43,8.7,5.4,19.31,4.56,31.54-2.53,31.49-18.23,64.38-71.4,88-142.23,20.31-61,43.44-163.89,38.34-308.16a7.5,7.5,0,0,1,7.23-7.76c4.09-.16,6.33-.83,6.47,3.31,5.18,146.51-17.11,255.23-37.81,317.35C888.86,1199.76,853.47,1256,818.9,1276,808.67,1282,799.73,1284.1,792.16,1284.1Z"/><path class="cls-8" d="M945.18,812.38c15.21,430.17-217.57,610.47-198.63,328.25C884.44,1075.84,945.48,941.82,945.18,812.38Z"/><path class="cls-8" d="M365.84,1113.54c-29.26,191.52,68.82,220.13,117,54.45"/><ellipse class="cls-9" cx="683.85" cy="704.44" rx="12.15" ry="5.18"/><path class="cls-9" d="M969.78,270.41c0,7.35-15.95,19.43-30.45,22.32s-22.69-15-22.69-22.32,11.9-13.31,26.57-13.31S969.78,263.06,969.78,270.41Z"/><path class="cls-1" d="M1078.22,75.29l-36.44-38.67,2.15-20h30.29l6.82,5.62,55.4-16.63s24.45,6.12,25.78,6.56,24,12,24,12l18.27,40.06S1131.11,52.17,1078.22,75.29Z"/><path class="cls-4" d="M215.12,1262.18a4.78,4.78,0,0,1-.92-.09,5,5,0,0,1-4-5.83l8.89-48a5,5,0,0,1,9.84,1.82l-8.89,48A5,5,0,0,1,215.12,1262.18Z"/><path class="cls-4" d="M248.69,1266.54a3.24,3.24,0,0,1-.44,0,5,5,0,0,1-4.55-5.4l4.16-48.64a5,5,0,1,1,10,.85L253.66,1262A5,5,0,0,1,248.69,1266.54Z"/><path class="cls-4" d="M395.58,1274.41a4.92,4.92,0,0,1-1.07-.11,5,5,0,0,1-3.82-6l6.93-31.68a5,5,0,0,1,9.77,2.14l-6.93,31.68A5,5,0,0,1,395.58,1274.41Z"/><path class="cls-4" d="M421.75,1277.29a4.35,4.35,0,0,1-.51,0,5,5,0,0,1-4.47-5.48l3.24-32.1a5,5,0,0,1,9.95,1l-3.24,32.1A5,5,0,0,1,421.75,1277.29Z"/><path class="cls-4" d="M780.1,1273.66a5.63,5.63,0,0,1-1.07-.11,5,5,0,0,1-3.82-6l8.73-39.93a5,5,0,0,1,9.77,2.14L785,1269.73A5,5,0,0,1,780.1,1273.66Z"/><path class="cls-4" d="M813.08,1277.29a4.35,4.35,0,0,1-.51,0,5,5,0,0,1-4.47-5.48l4.09-40.46a5,5,0,0,1,9.95,1l-4.09,40.47A5,5,0,0,1,813.08,1277.29Z"/><path class="cls-4" d="M548.49,1265.18a4.78,4.78,0,0,1-.92-.09,5,5,0,0,1-4-5.83l8.89-48a5,5,0,0,1,9.84,1.82l-8.89,48A5,5,0,0,1,548.49,1265.18Z"/><path class="cls-4" d="M582.05,1269.54a3.17,3.17,0,0,1-.43,0,5,5,0,0,1-4.55-5.4l4.16-48.64a5,5,0,1,1,10,.85L587,1265A5,5,0,0,1,582.05,1269.54Z"/></g></g></svg>