<svg xmlns="http://www.w3.org/2000/svg" width="80" height="80" viewBox="0 0 80 80"><g transform="translate(-837 -634)"><rect width="80" height="80" transform="translate(837 634)" fill="none"/><g transform="translate(-3756.694 -6134.099)"><g transform="translate(4626.767 6815.828)"><path d="M4725.8,6945.984a4.847,4.847,0,0,1-7.181-.138c-4.375-5.052-5.457-9.273,3.474-9.273C4731.085,6936.573,4730.578,6940.909,4725.8,6945.984Z" transform="translate(-4715.324 -6936.573)" fill="#ff5622"/></g><g transform="translate(4594.694 6772.099)"><path d="M4651.066,6793.146a36.269,36.269,0,0,0-11.377-3.924c12.956-8.064,3.7-15.894-7.131-2.76,12.254-19.8-3.259-19.074-8.364,1.848l-.627,1.9a32.6,32.6,0,0,0-7.245,2.933c-14.7,8.216-22.809,24.538-21.488,36.084a18.585,18.585,0,0,0,4.563,10.375c10.555,11.935,16.524-7.365,14.482-16.886-.473-2.656-.827-10.4,3.954-7.923,12.919,5.31,15.439-6.333,13.786-11.927-1.393-4.708,1.457-8.064,6.644-8.407a.26.26,0,0,0,.048,0c.364-.021.736-.029,1.122-.021a13.013,13.013,0,0,1,4.161.936,17.636,17.636,0,0,1,8.407,7.195c2.422,3.969,2.393,14.439,1.7,19.036-2.042,9.521,3.741,29.935,14.3,18a18.588,18.588,0,0,0,4.562-10.375C4673.876,6817.683,4665.767,6801.361,4651.066,6793.146Zm-25.88,14.517a1.67,1.67,0,1,1,1.67-1.669A1.669,1.669,0,0,1,4625.186,6807.662Z" transform="translate(-4594.694 -6772.099)" fill="#ff5622"/></g><g transform="translate(4620.667 6801.406)"><g transform="translate(0 0)"><path d="M4696.9,6882.33c-2.5,0-4.52,2.582-4.52,5.77s2.023,5.77,4.52,5.77,4.52-2.584,4.52-5.77S4699.4,6882.33,4696.9,6882.33Zm0,6.256a1.67,1.67,0,1,1,1.669-1.669A1.669,1.669,0,0,1,4696.9,6888.586Z" transform="translate(-4692.38 -6882.33)" fill="#3a1300"/></g><g transform="translate(17.016 0)"><path d="M4760.9,6882.33c-2.5,0-4.52,2.582-4.52,5.77s2.023,5.77,4.52,5.77,4.52-2.584,4.52-5.77S4763.4,6882.33,4760.9,6882.33Zm0,6.256a1.67,1.67,0,1,1,1.67-1.669A1.669,1.669,0,0,1,4760.9,6888.586Z" transform="translate(-4756.38 -6882.33)" fill="#3a1300"/></g></g><g transform="translate(4623.192 6824.769)"><path d="M4712.035,6982.095h-.023c-3.755-.013-7.1-3.057-9.938-9.047a1.994,1.994,0,0,1,3.6-1.708c2.064,4.354,4.317,6.757,6.344,6.767h.014c3.075,0,6.206-5.02,7.062-6.781a1.994,1.994,0,0,1,3.591,1.735C4722.241,6973.986,4718.151,6982.095,4712.035,6982.095Z" transform="translate(-4701.881 -6970.2)" fill="#3a1300"/></g></g></g></svg>