<svg xmlns="http://www.w3.org/2000/svg" width="80" height="80" viewBox="0 0 80 80"><g transform="translate(-986 -475)"><rect width="80" height="80" transform="translate(986 475)" fill="none"/><g transform="translate(-4058.364 -6286.523)"><g transform="translate(5045.364 6765.523)"><path d="M5123.225,6822.656a18.589,18.589,0,0,1-4.562,10.374c-10.555,11.936-16.338-8.481-14.3-18a47.221,47.221,0,0,0,.407-6.9,23.552,23.552,0,0,0,1.736-1.779c.032-.035.061-.072.09-.109a10.065,10.065,0,0,0,2.053-4.89,8.527,8.527,0,0,0-1.29-5.825,2.67,2.67,0,0,0-.258-.34,8.682,8.682,0,0,0-6.618-2.891c-.258,0-.513.011-.769.032a17.983,17.983,0,0,0-5.458-3.528,12.973,12.973,0,0,0-4.161-.936c-.383-.008-.758,0-1.12.021-.016,0-.032,0-.048.005-3.629.236-6.112,1.952-6.8,4.57a8.491,8.491,0,0,0-4.621-1.343,9.421,9.421,0,0,0-5.7,1.931,9.306,9.306,0,0,0-3.565-.7,8.675,8.675,0,0,0-6.618,2.893,2.681,2.681,0,0,0-.258.337,8.531,8.531,0,0,0-1.29,5.828,10.079,10.079,0,0,0,2.052,4.89c.029.037.059.072.091.109a26.4,26.4,0,0,0,2.733,2.669c-.938,1.93-.694,5.448-.4,7.069,2.042,9.521-3.927,28.821-14.482,16.886a18.582,18.582,0,0,1-4.562-10.374c-1.321-11.547,6.788-27.872,21.488-36.085a32.693,32.693,0,0,1,7.242-2.935l.63-1.9c5.1-20.922,20.616-21.653,8.365-1.851,10.834-13.131,20.086-5.3,7.13,2.763a36.189,36.189,0,0,1,11.377,3.924C5116.437,6794.785,5124.546,6811.109,5123.225,6822.656Z" transform="translate(-5045.364 -6765.523)" fill="#e80c5b"/></g><g transform="translate(5073.862 6818.193)"><path d="M5162.7,6975.52h-.024c-3.755-.013-7.1-3.057-9.938-9.047a1.994,1.994,0,0,1,3.6-1.708c2.064,4.354,4.317,6.758,6.344,6.767h.013c3.076,0,6.207-5.02,7.062-6.782a1.994,1.994,0,0,1,3.591,1.735C5172.908,6967.411,5168.818,6975.52,5162.7,6975.52Z" transform="translate(-5152.548 -6963.625)" fill="#3a1300"/></g><g transform="translate(5062.926 6793.984)"><g transform="translate(0 0.056)"><path d="M5130.408,6880.9a31.332,31.332,0,0,1-5.1,7.1,17.605,17.605,0,0,1-2.552,2.273,24.124,24.124,0,0,1-5.615-3.262,28.167,28.167,0,0,1-4.222-3.794,6.391,6.391,0,0,1-.609-7.306,5.467,5.467,0,0,1,2.066-1.454,6.46,6.46,0,0,1,5.081.148c.418.231.862.489,1.322.769.375-.391.734-.755,1.077-1.087a6.5,6.5,0,0,1,4.15-1.513,5.556,5.556,0,0,1,3.089.909h0A6.4,6.4,0,0,1,5130.408,6880.9Z" transform="translate(-5111.416 -6872.78)" fill="#e80c5b"/></g><g transform="translate(23.325 0)"><path d="M5218.7,6878.759a7.009,7.009,0,0,1-1.2,3.847q-.14.211-.3.407a8.841,8.841,0,0,1-17.494-2.324,6.394,6.394,0,0,1,1.316-7.21,5.466,5.466,0,0,1,1.516-.694,5.733,5.733,0,0,1,1.577-.216,6.489,6.489,0,0,1,4.15,1.513c.343.333.7.7,1.074,1.087.462-.282.9-.537,1.324-.771a6.476,6.476,0,0,1,4.586-.319,4.4,4.4,0,0,1,3.448,4.679Z" transform="translate(-5199.146 -6872.569)" fill="#e80c5b"/></g></g><g transform="translate(5077.436 6809.253)"><path d="M5179.849,6933.424c.008,1.643-1.271,3.741-3.382,5.985a4.846,4.846,0,0,1-7.182-.136c-1.885-2.18-3.161-4.2-3.284-5.8-.114-1.462.737-2.568,2.97-3.108a16.465,16.465,0,0,1,3.786-.364,15.64,15.64,0,0,1,4.254.479C5178.979,6931.045,5179.841,6932.082,5179.849,6933.424Z" transform="translate(-5165.992 -6930)" fill="#e80c5b"/></g></g></g></svg>